<svg id="svg" version="1.1" xmlns="http://www.w3.org/2000/svg" xmlns:xlink="http://www.w3.org/1999/xlink" width="400" height="400" viewBox="0, 0, 400,400"><g id="svgg"><path id="path0" d="M41.257 46.057 C 39.035 48.279,39.378 215.793,41.610 218.631 C 42.496 219.757,49.617 226.196,57.436 232.939 C 208.973 363.642,198.435 354.806,201.110 353.412 C 203.468 352.184,356.515 220.277,357.936 218.249 C 359.861 215.501,359.867 47.982,357.943 46.057 C 356.018 44.132,43.182 44.132,41.257 46.057 M343.213 63.213 C 344.809 64.809,344.823 65.562,344.613 136.110 L 344.400 207.394 338.458 212.959 C 335.190 216.021,323.850 225.978,313.258 235.087 C 267.051 274.825,252.040 287.748,233.705 303.573 C 199.139 333.408,200.264 332.605,196.484 330.129 C 195.437 329.443,182.210 318.205,167.090 305.156 C 151.971 292.107,134.941 277.419,129.247 272.515 C 123.553 267.612,114.526 259.820,109.186 255.200 C 103.847 250.580,92.088 240.427,83.055 232.638 C 74.022 224.849,63.969 215.983,60.716 212.935 L 54.800 207.394 54.587 136.110 C 54.377 65.562,54.391 64.809,55.987 63.213 C 58.535 60.665,340.665 60.665,343.213 63.213 M184.800 80.769 C 147.091 87.141,130.647 102.171,121.919 138.242 C 120.198 145.356,119.063 174.323,120.203 182.038 C 121.025 187.601,120.998 187.760,118.118 194.138 C 114.623 201.880,114.504 204.139,117.397 207.924 C 119.743 210.995,119.733 210.905,119.105 224.663 L 118.800 231.327 121.541 233.778 L 124.282 236.230 133.144 235.755 C 148.711 234.920,153.667 238.755,157.674 254.733 C 160.637 266.545,170.841 270.394,199.200 270.394 C 227.997 270.394,237.899 266.518,241.083 254.000 C 245.029 238.485,249.747 234.924,265.256 235.755 L 274.118 236.230 276.859 233.778 L 279.600 231.326 279.307 224.263 C 278.737 210.528,278.692 210.959,281.016 207.913 C 283.927 204.095,283.789 201.407,280.305 194.070 C 277.433 188.023,277.416 187.925,278.235 182.186 C 281.615 158.501,275.796 126.787,264.672 108.268 C 252.625 88.212,215.793 75.532,184.800 80.769 M177.199 159.283 C 195.834 163.976,193.962 191.346,174.097 204.633 C 152.572 219.029,134.116 213.744,134.171 193.200 C 134.229 171.620,156.494 154.070,177.199 159.283 M243.410 161.828 C 263.472 171.743,271.105 196.913,257.920 209.673 C 248.504 218.786,219.465 206.979,211.586 190.833 C 200.372 167.852,219.790 150.154,243.410 161.828 M204.357 198.303 C 214.810 204.227,220.713 229.365,212.663 233.673 C 210.234 234.973,189.914 235.152,186.653 233.902 C 179.058 230.991,180.418 215.163,189.303 203.059 C 194.094 196.533,198.677 195.085,204.357 198.303 " stroke="none" fill="#000000" fill-rule="evenodd"></path></g></svg>